<?xml version="1.0" standalone="no"?>
<!DOCTYPE svg PUBLIC "-//W3C//DTD SVG 20010904//EN"
 "http://www.w3.org/TR/2001/REC-SVG-20010904/DTD/svg10.dtd">
<svg version="1.0" xmlns="http://www.w3.org/2000/svg"
 width="2000.000000pt" height="1500.000000pt" viewBox="0 0 2000.000000 1500.000000"
 preserveAspectRatio="xMidYMid meet">

<g transform="translate(0.000000,1500.000000) scale(0.100000,-0.100000)"
fill="#000000" stroke="none">
<path d="M4097 9305 c-555 -76 -1036 -398 -1328 -887 -106 -178 -189 -411
-225 -633 -25 -148 -24 -409 0 -560 62 -382 232 -719 501 -990 369 -373 846
-563 1365 -542 173 7 295 27 448 73 649 196 1128 725 1264 1396 20 98 23 143
23 343 0 200 -3 245 -23 343 -159 787 -797 1375 -1584 1461 -127 14 -319 12
-441 -4z m567 -154 c148 -31 275 -75 421 -147 531 -263 883 -787 925 -1378 48
-682 -316 -1319 -925 -1620 -237 -117 -422 -164 -685 -173 -405 -14 -747 93
-1075 338 -185 137 -381 372 -484 578 -143 285 -204 618 -170 929 40 377 198
716 458 985 247 255 549 422 884 487 146 28 153 28 362 25 142 -3 215 -9 289
-24z"/>
<path d="M4173 8445 c-564 -102 -917 -678 -746 -1220 103 -327 358 -565 699
-652 62 -16 128 -18 614 -18 511 0 545 1 548 18 3 16 -18 17 -325 17 l-328 1
100 48 c96 46 203 118 273 185 99 93 200 265 249 422 25 82 27 102 27 259 0
157 -2 177 -28 259 -82 268 -251 473 -492 594 -178 90 -398 122 -591 87z m272
-36 c377 -44 689 -322 782 -696 12 -48 17 -110 17 -208 0 -98 -5 -160 -17
-208 -86 -345 -356 -609 -702 -684 -106 -24 -290 -21 -398 5 -344 84 -610 359
-681 704 -20 99 -20 267 0 366 37 178 133 352 262 474 88 83 143 120 245 168
162 76 315 100 492 79z"/>
<path d="M4208 8310 c-262 -45 -496 -222 -609 -463 -97 -208 -97 -476 0 -684
99 -211 298 -380 521 -443 367 -103 763 70 939 409 70 136 86 205 86 376 0
171 -16 240 -86 376 -160 308 -512 486 -851 429z m328 -60 c292 -75 517 -327
565 -633 24 -154 -13 -356 -91 -492 -153 -266 -461 -423 -758 -386 -183 23
-329 95 -462 230 -147 148 -220 325 -220 536 0 131 27 241 87 359 38 73 64
108 138 181 103 103 168 145 290 187 150 51 296 57 451 18z"/>
<path d="M4232 8174 c-116 -58 -163 -192 -108 -309 95 -205 399 -172 446 48
42 195 -159 350 -338 261z m217 -48 c53 -37 82 -94 82 -160 0 -124 -83 -202
-207 -194 -76 5 -125 38 -162 109 -47 90 -7 208 88 257 60 31 144 26 199 -12z"/>
<path d="M3772 7714 c-59 -29 -94 -70 -117 -133 -54 -153 61 -311 225 -311
113 0 206 74 231 184 43 196 -159 350 -339 260z m220 -50 c148 -105 86 -337
-95 -352 -100 -8 -179 47 -208 146 -24 83 24 185 105 223 61 29 143 22 198
-17z"/>
<path d="M4692 7719 c-138 -68 -175 -251 -75 -368 45 -54 105 -81 176 -81 139
0 237 98 237 235 0 99 -55 183 -142 219 -54 23 -144 20 -196 -5z m217 -53
c149 -104 84 -341 -98 -354 -218 -16 -291 266 -96 372 48 26 143 17 194 -18z"/>
<path d="M4292 7279 c-161 -30 -242 -217 -155 -358 75 -121 250 -148 354 -54
71 64 97 143 78 231 -14 67 -54 121 -115 153 -58 31 -103 39 -162 28z m136
-58 c68 -35 103 -95 103 -177 0 -186 -240 -265 -350 -114 -72 100 -38 240 71
293 45 23 130 21 176 -2z"/>
<path d="M9098 8240 c-223 -40 -403 -211 -477 -452 -27 -91 -44 -262 -36 -373
26 -364 160 -563 425 -632 91 -23 266 -23 345 1 204 62 356 227 417 455 45
171 33 484 -26 647 -64 176 -189 294 -361 338 -70 19 -226 27 -287 16z m222
-51 c152 -35 259 -163 312 -375 20 -78 22 -114 22 -299 0 -185 -3 -220 -22
-290 -38 -135 -83 -218 -165 -300 -93 -93 -152 -117 -282 -117 -305 2 -456
227 -458 682 -1 283 59 465 198 603 103 101 232 133 395 96z"/>
<path d="M6880 8216 c0 -18 22 -26 68 -26 20 0 43 -4 50 -8 10 -7 12 -150 10
-683 l-3 -674 -62 -8 c-44 -6 -63 -13 -63 -23 0 -12 35 -14 204 -14 191 0 234
6 212 27 -3 3 -56 9 -118 12 l-113 6 -2 665 -2 665 57 -120 c32 -66 150 -315
262 -552 183 -386 207 -433 228 -433 27 0 29 5 343 684 l184 400 3 -645 c1
-354 0 -649 -2 -655 -2 -6 -32 -14 -65 -18 -43 -5 -61 -11 -61 -21 0 -13 33
-15 210 -15 175 0 210 2 210 14 0 14 -20 18 -135 29 -20 2 -20 10 -23 669 -2
744 -7 698 68 698 48 0 70 8 70 26 0 11 -27 14 -138 14 l-137 0 -240 -520
c-132 -285 -243 -519 -246 -520 -3 0 -115 234 -250 520 l-244 520 -137 0
c-111 0 -138 -3 -138 -14z"/>
<path d="M9920 8210 c0 -17 7 -20 48 -20 26 0 53 -4 60 -8 10 -7 281 -790 456
-1319 l28 -83 68 0 69 0 76 238 c43 130 142 437 221 682 79 245 148 455 154
468 8 18 18 22 54 22 54 0 76 8 76 26 0 12 -36 14 -200 14 -173 0 -200 -2
-200 -15 0 -20 8 -22 112 -30 62 -5 88 -11 92 -21 8 -20 -396 -1338 -405
-1322 -4 7 -106 310 -228 672 -169 502 -218 661 -209 668 7 4 31 8 53 8 55 0
85 10 85 26 0 11 -37 14 -205 14 -198 0 -205 -1 -205 -20z"/>
<path d="M11372 8213 c2 -14 16 -19 61 -23 36 -3 62 -11 67 -20 13 -20 13
-1305 0 -1329 -7 -13 -27 -20 -70 -25 -43 -5 -60 -11 -60 -21 0 -13 33 -15
210 -15 171 0 210 3 210 14 0 14 -49 26 -107 26 l-33 0 0 685 0 685 48 0 c61
0 92 9 92 26 0 12 -38 14 -211 14 -195 0 -210 -1 -207 -17z"/>
<path d="M11990 8216 c0 -18 22 -26 69 -26 20 0 42 -5 49 -12 9 -9 12 -174 12
-679 0 -627 -1 -668 -17 -673 -10 -3 -39 -8 -65 -12 -31 -4 -48 -11 -48 -20 0
-12 76 -14 470 -14 l470 0 0 28 c1 15 7 95 14 177 8 83 12 153 9 158 -11 18
-33 4 -38 -25 -5 -32 -35 -280 -35 -292 0 -3 -139 -6 -310 -6 l-310 0 0 330 0
330 263 -2 262 -3 3 -67 c2 -52 6 -68 17 -68 13 0 15 29 15 175 0 140 -3 175
-14 175 -9 0 -15 -22 -19 -76 -4 -42 -9 -80 -13 -85 -3 -5 -117 -9 -260 -9
l-254 0 0 335 0 335 282 -2 283 -3 15 -129 c8 -71 20 -131 25 -133 30 -9 33
13 19 152 -7 77 -13 143 -14 148 0 4 -198 7 -440 7 -369 0 -440 -2 -440 -14z"/>
<path d="M13076 8218 c-3 -7 -9 -74 -15 -148 -8 -103 -7 -136 2 -142 28 -18
30 -11 48 150 l12 112 178 0 179 0 0 -674 c0 -527 -3 -676 -12 -684 -7 -5 -37
-13 -65 -17 -36 -5 -53 -12 -53 -21 0 -12 36 -14 205 -14 167 0 205 3 205 14
0 14 -49 26 -112 26 l-38 0 0 685 0 685 179 0 179 0 6 -27 c3 -16 10 -76 17
-135 7 -60 15 -108 20 -108 33 0 35 8 23 138 -7 70 -13 137 -13 150 l-1 22
-470 0 c-368 0 -471 -3 -474 -12z"/>
<path d="M14192 8213 c2 -14 16 -19 61 -23 36 -3 62 -11 67 -20 13 -20 13
-1305 0 -1329 -7 -13 -27 -20 -70 -25 -43 -5 -60 -11 -60 -21 0 -13 33 -15
210 -15 171 0 210 3 210 14 0 14 -49 26 -107 26 l-33 0 0 685 0 685 48 0 c61
0 92 9 92 26 0 12 -38 14 -211 14 -195 0 -210 -1 -207 -17z"/>
<path d="M14790 8216 c0 -18 22 -26 68 -26 20 0 43 -4 50 -8 10 -7 12 -150 10
-683 l-3 -674 -62 -8 c-44 -6 -63 -13 -63 -23 0 -12 35 -14 204 -14 191 0 234
6 212 27 -3 3 -56 9 -118 12 l-113 6 -2 665 -2 665 62 -130 c34 -71 152 -320
262 -552 175 -370 203 -423 222 -423 28 0 18 -19 300 590 123 267 229 489 234
494 13 14 12 -1269 -1 -1293 -7 -13 -27 -20 -70 -25 -43 -5 -60 -11 -60 -21 0
-13 33 -15 210 -15 171 0 210 3 210 14 0 14 -49 26 -112 26 l-38 0 0 679 c0
752 -6 691 65 691 43 0 65 9 65 26 0 11 -27 14 -137 14 l-138 0 -240 -520
c-132 -286 -242 -520 -245 -520 -4 0 -116 234 -250 520 l-245 520 -137 0
c-111 0 -138 -3 -138 -14z"/>
<path d="M16510 8216 c0 -18 22 -26 69 -26 20 0 42 -5 49 -12 18 -18 17 -1331
0 -1346 -7 -5 -37 -13 -65 -17 -36 -5 -53 -12 -53 -21 0 -12 73 -14 468 -14
l469 0 12 153 c7 83 15 164 17 180 4 19 1 29 -11 33 -9 4 -18 4 -22 1 -4 -5
-42 -277 -43 -314 0 -10 -69 -13 -310 -13 l-310 0 0 330 0 330 259 0 c293 0
271 7 271 -86 0 -41 4 -54 15 -54 13 0 15 26 15 175 0 139 -3 175 -13 175 -10
0 -16 -25 -23 -82 l-9 -83 -257 -3 -258 -2 0 335 0 335 280 0 c154 0 280 -1
281 -2 0 -2 8 -61 17 -132 10 -71 22 -131 27 -133 30 -9 33 13 19 152 -7 77
-13 143 -14 148 0 4 -198 7 -440 7 -369 0 -440 -2 -440 -14z"/>
</g>
</svg>
