<svg xmlns="http://www.w3.org/2000/svg" version="1.1" xmlns:xlink="http://www.w3.org/1999/xlink" xmlns:svgjs="http://svgjs.dev/svgjs" width="1000" height="242" viewBox="0 0 1000 242"><g transform="matrix(1,0,0,1,-0.6060590520402229,0.07600101501945744)"><svg viewBox="0 0 396 96" data-background-color="#000000" preserveAspectRatio="xMidYMid meet" height="242" width="1000" xmlns="http://www.w3.org/2000/svg" xmlns:xlink="http://www.w3.org/1999/xlink"><g id="tight-bounds" transform="matrix(1,0,0,1,0.2399993846079269,-0.030149162982922917)"><svg viewBox="0 0 395.52 96.06029832596586" height="96.06029832596586" width="395.52"><g><svg viewBox="0 0 558.1133130329338 135.54948257897652" height="96.06029832596586" width="395.52"><g transform="matrix(1,0,0,1,162.59331303293376,39.135838506107866)"><svg viewBox="0 0 395.52 57.27780556676079" height="57.27780556676079" width="395.52"><g id="textblocktransform"><svg viewBox="0 0 395.52 57.27780556676079" height="57.27780556676079" width="395.52" id="textblock"><g><svg viewBox="0 0 395.52 57.27780556676079" height="57.27780556676079" width="395.52"><g transform="matrix(1,0,0,1,0,0)"><svg width="395.52" viewBox="1.9000000953674316 -35.45000076293945 256.2799987792969 35.900001525878906" height="57.27780556676079" data-palette-color="#89939e"><g class="undefined-text-0" data-fill-palette-color="primary" id="text-0"><path d="M4.55-33.95L1.9-34.25 1.95-35 8.55-35 20.5-9.65 32.25-35 38.85-35Q38.85-34.9 38.9-34.65 38.95-34.4 38.9-34.25L38.9-34.25 36.25-33.95Q35.75-33.9 35.65-33.3L35.65-33.3 35.65-0.95 39.35-0.75Q39.35-0.7 39.3 0L39.3 0 29.25 0.05 29.3-0.65 31.9-1Q32.4-1.05 32.5-1.6L32.5-1.6 32.5-33.2 21.1-8.55 20.1-6.55 18.95-6.55 6.3-33.25 6.3-1.05 12-0.75Q12-0.7 11.95 0L11.95 0 1.9 0.05 1.95-0.65 4.55-1Q5.05-1.05 5.15-1.65L5.15-1.65 5.15-33.3Q5.05-33.9 4.55-33.95L4.55-33.95ZM43.1-17.4L43.1-17.4Q43.1-25.65 47.32-30.55 51.55-35.45 57.85-35.45L57.85-35.45Q72.6-35.45 72.6-17.4L72.6-17.4Q72.6-9.1 68.4-4.33 64.2 0.45 57.85 0.45L57.85 0.45Q43.1 0.45 43.1-17.4ZM46.5-17.5L46.5-17.5Q46.5-0.55 57.85-0.55L57.85-0.55Q62.75-0.55 65.97-5.05 69.2-9.55 69.2-17.5L69.2-17.5Q69.2-34.45 57.85-34.45L57.85-34.45Q53-34.45 49.75-29.9 46.5-25.35 46.5-17.5ZM97.39-34.95L107.15-35Q107.15-34.95 107.19-34.25L107.19-34.25 104.05-33.95 93.05 0 89.75 0 78.34-33.7Q78.19-33.9 77.94-33.95L77.94-33.95 75.34-34.2Q75.3-34.5 75.3-34.95L75.3-34.95 85.3-35Q85.3-34.95 85.34-34.25L85.34-34.25 81.64-33.9 92.69-0.95 102.39-32.7 102.44-33.15Q102.44-33.75 102-33.8L102-33.8 97.44-34.2Q97.39-34.5 97.39-34.95L97.39-34.95ZM120.54 0L110.49 0.05 110.54-0.65 113.14-1Q113.64-1.05 113.74-1.65L113.74-1.65 113.79-1.65 113.79-33.25 113.74-33.25Q113.64-33.9 113.14-33.95L113.14-33.95 110.54-34.2 110.49-34.95 120.54-35Q120.54-34.95 120.59-34.25L120.59-34.25 117.19-33.95 117.19-0.95 120.59-0.75Q120.59-0.7 120.54 0L120.54 0ZM128.04-33.95L125.39-34.25 125.44-35 146.84-35 146.79-34.85 147.44-27.8 146.44-27.4 145.64-34 132.04-34 132.04-17.85 143.99-17.85Q144.24-17.8 144.44-17.98 144.64-18.15 144.64-18.45L144.64-18.45 144.84-21.9 145.64-22 145.64-13.45Q145.59-13.45 144.89-13.4L144.89-13.4 144.69-16.85 132.04-16.85 132.04-1 146.99-1 147.94-9 148.89-8.75 148.14 0 135.44 0 125.39 0.05 125.44-0.65 128.04-1Q128.54-1.05 128.64-1.65L128.64-1.65 128.64-33.3Q128.54-33.9 128.04-33.95L128.04-33.95ZM161.49-1.65L161.49-34 152.89-34 152.09-27.4 151.14-27.8 151.64-34 151.59-34 151.69-34.4 151.74-35 151.84-34.95 151.84-35 174.54-35 175.19-27.8 174.19-27.4 173.39-34 164.64-34 164.64-0.95 168.29-0.75Q168.29-0.7 168.24 0L168.24 0 158.24 0.05Q158.24-0.4 158.29-0.65L158.29-0.65 160.89-1Q161.39-1.05 161.49-1.65L161.49-1.65ZM188.74 0L178.69 0.05 178.74-0.65 181.34-1Q181.84-1.05 181.94-1.65L181.94-1.65 181.99-1.65 181.99-33.25 181.94-33.25Q181.84-33.9 181.34-33.95L181.34-33.95 178.74-34.2 178.69-34.95 188.74-35Q188.74-34.95 188.79-34.25L188.79-34.25 185.39-33.95 185.39-0.95 188.79-0.75Q188.79-0.7 188.74 0L188.74 0ZM195.83-33.95L193.18-34.25 193.23-35 199.83-35 211.78-9.65 223.53-35 230.13-35Q230.13-34.9 230.18-34.65 230.23-34.4 230.18-34.25L230.18-34.25 227.53-33.95Q227.03-33.9 226.93-33.3L226.93-33.3 226.93-0.95 230.63-0.75Q230.63-0.7 230.58 0L230.58 0 220.53 0.05 220.58-0.65 223.18-1Q223.68-1.05 223.78-1.6L223.78-1.6 223.78-33.2 212.38-8.55 211.38-6.55 210.23-6.55 197.58-33.25 197.58-1.05 203.28-0.75Q203.28-0.7 203.23 0L203.23 0 193.18 0.05 193.23-0.65 195.83-1Q196.33-1.05 196.43-1.65L196.43-1.65 196.43-33.3Q196.33-33.9 195.83-33.95L195.83-33.95ZM237.33-33.95L234.68-34.25 234.73-35 256.13-35 256.08-34.85 256.73-27.8 255.73-27.4 254.93-34 241.33-34 241.33-17.85 253.28-17.85Q253.53-17.8 253.73-17.98 253.93-18.15 253.93-18.45L253.93-18.45 254.13-21.9 254.93-22 254.93-13.45Q254.88-13.45 254.18-13.4L254.18-13.4 253.98-16.85 241.33-16.85 241.33-1 256.28-1 257.23-9 258.18-8.75 257.43 0 244.73 0 234.68 0.05 234.73-0.65 237.33-1Q237.83-1.05 237.93-1.65L237.93-1.65 237.93-33.3Q237.83-33.9 237.33-33.95L237.33-33.95Z" fill="#89939e" data-fill-palette-color="primary"></path></g></svg></g></svg></g></svg></g></svg></g><g><svg viewBox="0 0 135.54948257897652 135.54948257897652" height="135.54948257897652" width="135.54948257897652"><g><svg></svg></g><g id="icon-0"><svg viewBox="0 0 135.54948257897652 135.54948257897652" height="135.54948257897652" width="135.54948257897652"><g><path d="M0 67.775c0-37.431 30.344-67.775 67.775-67.775 37.431 0 67.775 30.344 67.774 67.775 0 37.431-30.344 67.775-67.774 67.774-37.431 0-67.775-30.344-67.775-67.774zM67.775 130.384c34.578 0 62.609-28.031 62.609-62.609 0-34.578-28.031-62.609-62.609-62.61-34.578 0-62.609 28.031-62.61 62.61 0 34.578 28.031 62.609 62.61 62.609z" data-fill-palette-color="accent" fill="#dedede" stroke="transparent"></path></g><g transform="matrix(1,0,0,1,32.13727170772492,32.145185037580944)"><svg viewBox="0 0 71.27493916352668 71.25911250381463" height="71.25911250381463" width="71.27493916352668"><g><svg xmlns="http://www.w3.org/2000/svg" xmlns:xlink="http://www.w3.org/1999/xlink" version="1.1" x="0" y="0" viewBox="13.992000579833984 14 72.0159912109375 72" enable-background="new 0 0 100 100" xml:space="preserve" height="71.25911250381463" width="71.27493916352668" class="icon-s-0" data-fill-palette-color="accent" id="s-0"><g fill="#dedede" data-fill-palette-color="accent"><path fill="#dedede" d="M49.992 14c-19.86 0-36 16.14-36 36 0 19.74 15.9 35.76 35.58 36 0.06 0 0.06 0 0.12 0h0.3 35.161c1.14 0 1.14-1.62 0-1.62h-24.54c14.699-4.5 25.38-18.18 25.38-34.38C85.993 30.14 69.853 14 49.992 14L49.992 14zM49.992 15.62c19.021 0 34.381 15.36 34.381 34.38 0 19.02-15.36 34.38-34.381 34.38-19.02 0-34.38-15.36-34.38-34.38C15.612 30.98 30.972 15.62 49.992 15.62L49.992 15.62zM49.992 19.28c-16.98 0-30.72 13.74-30.72 30.72 0 16.98 13.74 30.72 30.72 30.72 16.98 0 30.721-13.739 30.721-30.72C80.713 33.02 66.973 19.28 49.992 19.28L49.992 19.28zM49.992 20.9c16.081 0 29.101 13.02 29.101 29.1s-13.02 29.1-29.101 29.1c-16.08 0-29.1-13.02-29.1-29.1S33.913 20.9 49.992 20.9L49.992 20.9zM49.992 23.72c-4.98 0-9 4.02-9 9s4.02 9 9 9c4.98 0 9.001-4.02 9.001-9S54.973 23.72 49.992 23.72L49.992 23.72zM49.992 25.28c4.141 0 7.44 3.3 7.44 7.44 0 4.08-3.3 7.44-7.44 7.44-4.14 0-7.44-3.36-7.44-7.44C42.552 28.58 45.853 25.28 49.992 25.28L49.992 25.28zM32.712 41c-4.98 0-9 4.02-9 9 0 4.98 4.02 9 9 9s9-4.02 9-9C41.712 45.02 37.692 41 32.712 41L32.712 41zM67.272 41c-4.979 0-9 4.02-9 9 0 4.98 4.021 9 9 9 4.98 0 9-4.02 9-9C76.272 45.02 72.253 41 67.272 41L67.272 41zM32.712 42.56c4.08 0 7.44 3.3 7.44 7.44 0 4.14-3.36 7.44-7.44 7.44-4.14 0-7.44-3.301-7.44-7.44C25.272 45.86 28.572 42.56 32.712 42.56L32.712 42.56zM67.272 42.56c4.141 0 7.44 3.3 7.44 7.44 0 4.14-3.3 7.44-7.44 7.44-4.08 0-7.439-3.301-7.439-7.44C59.833 45.86 63.192 42.56 67.272 42.56L67.272 42.56zM49.992 58.28c-4.98 0-9 4.02-9 9 0 4.979 4.02 9 9 9 4.98 0 9.001-4.021 9.001-9C58.993 62.3 54.973 58.28 49.992 58.28L49.992 58.28zM49.992 59.84c4.141 0 7.44 3.36 7.44 7.44 0 4.14-3.3 7.439-7.44 7.439-4.14 0-7.44-3.3-7.44-7.439C42.552 63.2 45.853 59.84 49.992 59.84L49.992 59.84z" data-fill-palette-color="accent"></path></g></svg></g></svg></g></svg></g></svg></g></svg></g><defs></defs></svg><rect width="395.52" height="96.06029832596586" fill="none" stroke="none" visibility="hidden"></rect></g></svg></g></svg>